<svg id="Layer_1" data-name="Layer 1" xmlns="http://www.w3.org/2000/svg" xmlns:xlink="http://www.w3.org/1999/xlink" viewBox="0 0 377 1763">
<defs>
<style>.cls-1{fill:url(#linear-gradient);}.cls-2{fill:#ef8318;}.cls-3{fill:#ffd00d;}.cls-4{fill:#eef6ff;}.cls-5{fill:#d9eafc;}.cls-6{fill:#1a2b63;}.cls-7{fill:url(#linear-gradient-2);}.cls-8{fill:url(#linear-gradient-3);}.cls-9{fill:url(#linear-gradient-4);}.cls-10{fill:url(#linear-gradient-5);}</style><linearGradient id="linear-gradient" x1="-188.88" y1="274.28" x2="557.88" y2="1567.72" gradientUnits="userSpaceOnUse"><stop offset="0" stop-color="#fbb03b"/><stop offset="1" stop-color="#f7931e"/></linearGradient><linearGradient id="linear-gradient-2" x1="79.8" y1="785.38" x2="125.43" y2="864.41" gradientTransform="translate(-516.9 576.9) rotate(-90)" gradientUnits="userSpaceOnUse"><stop offset="0" stop-color="#fcee21"/><stop offset="0.9" stop-color="#fcc421"/></linearGradient><linearGradient id="linear-gradient-3" x1="-435.2" y1="795.38" x2="-389.57" y2="874.41" xlink:href="#linear-gradient-2"/><linearGradient id="linear-gradient-4" x1="-942.2" y1="795.38" x2="-896.57" y2="874.41" xlink:href="#linear-gradient-2"/><linearGradient id="linear-gradient-5" x1="127.77" y1="1621.31" x2="249.23" y2="1831.69" gradientUnits="userSpaceOnUse"><stop offset="0" stop-color="#fcee21"/><stop offset="0.43" stop-color="#fcc421"/></linearGradient></defs><title>goal-o-meter</title><rect class="cls-1" x="73" y="118" width="223" height="1606" rx="12" ry="12"/><circle class="cls-2" cx="174.04" cy="168.96" r="155.04"/><path class="cls-3" d="M144.47,258,41.06,380.2a1.9,1.9,0,0,0,1.45,3.12,1.93,1.93,0,0,0,1.23-.45L166,279.47A118.07,118.07,0,0,1,144.47,258Z" transform="translate(-12 -69)"/><path class="cls-3" d="M127.44,227.17,59.93,307a1.9,1.9,0,0,0,.1,2.57,1.94,1.94,0,0,0,1.35.55,1.88,1.88,0,0,0,1.22-.45l74.28-62.83A116.5,116.5,0,0,1,127.44,227.17Z" transform="translate(-12 -69)"/><path class="cls-3" d="M178.87,288.12l-62,73.28A1.9,1.9,0,0,0,117,364a1.91,1.91,0,0,0,2.56.11l79.06-66.88A116.59,116.59,0,0,1,178.87,288.12Z" transform="translate(-12 -69)"/><path class="cls-3" d="M237.3,303.77A117.52,117.52,0,0,1,216.7,302l-49.2,58.16a1.91,1.91,0,0,0,.11,2.57,1.94,1.94,0,0,0,1.34.55,1.91,1.91,0,0,0,1.23-.45L240,303.74C239.09,303.76,238.2,303.77,237.3,303.77Z" transform="translate(-12 -69)"/><path class="cls-3" d="M120.23,186.7c0-1.71,0-3.41.11-5.11L62.47,250a1.91,1.91,0,0,0,.11,2.57,1.94,1.94,0,0,0,1.34.55,1.91,1.91,0,0,0,1.23-.45l56.49-47.78A117.43,117.43,0,0,1,120.23,186.7Z" transform="translate(-12 -69)"/><circle class="cls-4" cx="225.3" cy="117.7" r="117.7"/><path class="cls-5" d="M133.21,241.68,154,245a117.2,117.2,0,0,1-15.41-58.28c0-2,0-4,.15-6l-2.38-7.56-16.64,8.47h0c-.07,1.69-.12,3.39-.12,5.1a117.14,117.14,0,0,0,13.62,55Z" transform="translate(-12 -69)"/><path class="cls-5" d="M201.59,82.46l-7.34-5.34A118,118,0,0,0,155,102.52l3.05,19.26A118.28,118.28,0,0,1,201.59,82.46Z" transform="translate(-12 -69)"/><path class="cls-5" d="M195.2,296.65h0a117.58,117.58,0,0,0,42.1,7.76c3.19,0,6.36-.14,9.49-.39a116.92,116.92,0,0,1-53.22-17.71Z" transform="translate(-12 -69)"/><path class="cls-6" d="M338.34,172.85l16.53,8.42a117.32,117.32,0,0,0-34.78-78.22l-3.87,24.4-55.17-36.3,19.3-14a118.18,118.18,0,0,0-86.1,0l19.3,14-54.62,35.94L155,102.52a117.37,117.37,0,0,0-35.33,79.08l16.64-8.47,22.94,72.68-26.08-4.13a118.1,118.1,0,0,0,62,55l-2.74-17.34H282l-2.75,17.38a118.14,118.14,0,0,0,62.06-54.94l-26.07,4.13ZM307.62,247.1l-16,2.53-26.9-26.91,13.18-40.57,36.88-21.29,17.25,8.79ZM315,135l-3.09,19.52L276.46,175l-35.69-25.92V105.88L255,95.51ZM219.55,95.51l14.28,10.37v43.17l-35.55,25.83-35-20.19-3.18-20.08Zm-76.93,74.42,17.63-9,36.34,21,13.13,40.41L182.55,249.5,167,247Zm48.74,102.44-3-18.87L215,226.87h44.08l27,27-2.93,18.49H191.36Z" transform="translate(-12 -69)"/><polygon class="cls-7" points="250.97 466.77 285.99 436.17 321 405.56 321 466.77 321 527.99 285.99 497.38 250.97 466.77"/><polygon class="cls-8" points="260.97 981.77 295.99 951.17 331 920.56 331 981.77 331 1042.99 295.99 1012.38 260.97 981.77"/><polygon class="cls-9" points="260.97 1488.78 295.99 1458.17 331 1427.56 331 1488.78 331 1549.99 295.99 1519.38 260.97 1488.78"/><rect class="cls-10" y="1690" width="377" height="73" rx="12" ry="12"/></svg>